<?xml version="1.0" encoding="UTF-8"?><svg id="a" xmlns="http://www.w3.org/2000/svg" viewBox="0 0 723.07483 34.88007"><defs><style>.b{fill:#0076bc;}.c{fill:#7cc24d;}</style></defs><path class="b" d="M48.52305,34.88007H14.53052c-.48953,0-.88754-.39588-.88754-.88754v-1.71548c0-.48953,.39801-.88754,.88754-.88754h30.5041V3.48843H17.13142v4.95064c0,.48953-.39588,.88754-.88754,.88754h-1.71548c-.48953,0-.88754-.39801-.88754-.88754V0H48.52093V34.88007h.00213Z"/><path class="c" d="M23.88906,11.25067H8.86262c-.48953,0-.88754,.39801-.88754,.88754v1.71548c0,.48953,.39801,.88754,.88754,.88754H27.88617v-2.88397h6.59801c.48953,0,.88754-.39801,.88754-.88754v-1.71548c0-.48953-.39801-.88754-.88754-.88754h-10.58662l3.98861,2.88184h-3.99712"/><path class="c" d="M23.88906,18.51274H.88541c-.48953,0-.88541,.39801-.88541,.88754v1.71548c0,.48953,.39588,.88754,.88541,.88754H27.88617v-2.88397h12.80227c.48953,0,.88754-.39801,.88754-.88754v-1.71548c0-.48953-.39801-.88754-.88754-.88754H23.89757l3.98861,2.88184h-3.99712"/><path class="c" d="M23.88906,25.77481H5.31672c-.48953,0-.88754,.39801-.88754,.88754v1.71548c0,.48953,.39801,.88754,.88754,.88754H27.88617v-2.88184h12.80227c.48953,0,.88754-.39801,.88754-.88754v-1.71548c0-.48953-.39801-.88754-.88754-.88754H23.89757l3.98861,2.88184h-3.99712"/><g><path class="b" d="M58.24817,24.41846l3.5-3.3042c.95215,1.14795,1.84814,1.81982,3.05225,1.81982,1.37207,0,2.24023-.92383,2.24023-2.74365V7.78614h5.40332v12.43213c0,2.46387-.61523,4.2002-1.93164,5.51611-1.28809,1.28809-3.13574,1.98779-5.37598,1.98779-3.4165,0-5.51611-1.42773-6.88818-3.30371Z"/><path class="b" d="M74.9928,17.64209v-.05566c0-5.62793,4.53516-10.19189,10.58398-10.19189,6.04785,0,10.52734,4.50781,10.52734,10.13574v.05615c0,5.62793-4.53613,10.19189-10.58398,10.19189s-10.52734-4.5083-10.52734-10.13623Zm15.56738,0v-.05566c0-2.82812-2.04395-5.29199-5.04004-5.29199-2.96777,0-4.95605,2.40771-4.95605,5.23584v.05615c0,2.82764,2.04395,5.29199,5.0127,5.29199,2.99512,0,4.9834-2.4082,4.9834-5.23633Z"/><path class="b" d="M99.04358,7.78614h5.45996V27.38623h-5.45996V7.78614Z"/><path class="b" d="M108.0885,7.78614h5.06738l8.06445,10.36035V7.78614h5.37598V27.38623h-4.75977l-8.37207-10.75195v10.75195h-5.37598V7.78614Z"/><path class="b" d="M134.85608,12.54639h-5.88086V7.78614h17.19238v4.76025h-5.87988v14.83984h-5.43164V12.54639Z"/><path class="b" d="M156.30335,7.78614h7.55957c7,0,11.05957,4.03223,11.05957,9.68799v.05615c0,5.65576-4.11523,9.85596-11.17188,9.85596h-7.44727V7.78614Zm7.64355,14.78418c3.24805,0,5.4043-1.79199,5.4043-4.95605v-.05615c0-3.13574-2.15625-4.95605-5.4043-4.95605h-2.21191v9.96826h2.21191Z"/><path class="b" d="M177.72327,7.78614h15.76367v4.62012h-10.3877v2.96826h9.40723v4.28369h-9.40723v3.10791h10.52734v4.62012h-15.90332V7.78614Z"/><path class="b" d="M194.83069,7.78614h6.07617l4.45215,12.4043,4.45117-12.4043h5.96484l-7.95215,19.74023h-5.04004l-7.95215-19.74023Z"/><path class="b" d="M217.67933,7.78614h15.76367v4.62012h-10.3877v2.96826h9.40723v4.28369h-9.40723v3.10791h10.52734v4.62012h-15.90332V7.78614Z"/><path class="b" d="M236.35511,7.78614h5.43164v14.84033h9.49219v4.75977h-14.92383V7.78614Z"/><path class="b" d="M251.81116,17.64209v-.05566c0-5.62793,4.53516-10.19189,10.58398-10.19189,6.04785,0,10.52734,4.50781,10.52734,10.13574v.05615c0,5.62793-4.53613,10.19189-10.58398,10.19189s-10.52734-4.5083-10.52734-10.13623Zm15.56738,0v-.05566c0-2.82812-2.04395-5.29199-5.04004-5.29199-2.96777,0-4.95605,2.40771-4.95605,5.23584v.05615c0,2.82764,2.04395,5.29199,5.0127,5.29199,2.99512,0,4.9834-2.4082,4.9834-5.23633Z"/><path class="b" d="M275.75061,7.78614h8.39941c4.95605,0,8.14844,2.54834,8.14844,6.88818v.05615c0,4.61963-3.55664,7.05566-8.42871,7.05566h-2.6875v5.6001h-5.43164V7.78614Zm8.00781,9.74414c1.93164,0,3.10742-1.00781,3.10742-2.54785v-.05615c0-1.68018-1.17578-2.57617-3.13574-2.57617h-2.54785v5.18018h2.57617Z"/><path class="b" d="M294.59436,7.78614h5.73926l4.67676,7.58838,4.67578-7.58838h5.74023V27.38623h-5.4043v-11.25586l-5.01172,7.67188h-.1123l-4.98438-7.61621v11.2002h-5.31934V7.78614Z"/><path class="b" d="M318.89808,7.78614h15.76367v4.62012h-10.3877v2.96826h9.40723v4.28369h-9.40723v3.10791h10.52734v4.62012h-15.90332V7.78614Z"/><path class="b" d="M337.57386,7.78614h5.06738l8.06445,10.36035V7.78614h5.37598V27.38623h-4.75977l-8.37207-10.75195v10.75195h-5.37598V7.78614Z"/><path class="b" d="M364.34241,12.54639h-5.88086V7.78614h17.19238v4.76025h-5.87988v14.83984h-5.43164V12.54639Z"/><path class="b" d="M385.78968,7.78614h15.67969v4.76025h-10.24805v3.33203h9.26758v4.50781h-9.26758v7h-5.43164V7.78614Z"/><path class="b" d="M403.26136,17.64209v-.05566c0-5.62793,4.53516-10.19189,10.58301-10.19189,6.04883,0,10.52832,4.50781,10.52832,10.13574v.05615c0,5.62793-4.53613,10.19189-10.58398,10.19189s-10.52734-4.5083-10.52734-10.13623Zm15.56738,0v-.05566c0-2.82812-2.04395-5.29199-5.04004-5.29199-2.96777,0-4.95605,2.40771-4.95605,5.23584v.05615c0,2.82764,2.04395,5.29199,5.01172,5.29199,2.99609,0,4.98438-2.4082,4.98438-5.23633Z"/><path class="b" d="M426.94886,18.79004V7.78614h5.51562v10.89209c0,2.82812,1.42773,4.17188,3.6123,4.17188,2.18359,0,3.61133-1.28809,3.61133-4.03174V7.78614h5.5166v10.86426c0,6.32764-3.6123,9.09961-9.18457,9.09961-5.57129,0-9.07129-2.82764-9.07129-8.95996Z"/><path class="b" d="M448.42444,7.78614h5.06738l8.06445,10.36035V7.78614h5.37598V27.38623h-4.75977l-8.37207-10.75195v10.75195h-5.37598V7.78614Z"/><path class="b" d="M470.40491,7.78614h7.55957c7,0,11.05957,4.03223,11.05957,9.68799v.05615c0,5.65576-4.11523,9.85596-11.17188,9.85596h-7.44727V7.78614Zm7.64355,14.78418c3.24805,0,5.4043-1.79199,5.4043-4.95605v-.05615c0-3.13574-2.15625-4.95605-5.4043-4.95605h-2.21191v9.96826h2.21191Z"/><path class="b" d="M497.19983,7.64649h5.23633l8.34375,19.73975h-5.82422l-1.42773-3.5h-7.55957l-1.40039,3.5h-5.71191l8.34375-19.73975Zm4.75977,12.01172l-2.18359-5.57178-2.21191,5.57178h4.39551Z"/><path class="b" d="M514.95276,12.54639h-5.88086V7.78614h17.19238v4.76025h-5.87988v14.83984h-5.43164V12.54639Z"/><path class="b" d="M528.75647,7.78614h5.45996V27.38623h-5.45996V7.78614Z"/><path class="b" d="M537.12854,17.64209v-.05566c0-5.62793,4.53516-10.19189,10.58301-10.19189,6.04883,0,10.52832,4.50781,10.52832,10.13574v.05615c0,5.62793-4.53613,10.19189-10.58398,10.19189s-10.52734-4.5083-10.52734-10.13623Zm15.56738,0v-.05566c0-2.82812-2.04395-5.29199-5.04004-5.29199-2.96777,0-4.95605,2.40771-4.95605,5.23584v.05615c0,2.82764,2.04395,5.29199,5.01172,5.29199,2.99609,0,4.98438-2.4082,4.98438-5.23633Z"/><path class="b" d="M561.068,7.78614h5.06738l8.06445,10.36035V7.78614h5.37598V27.38623h-4.75977l-8.37207-10.75195v10.75195h-5.37598V7.78614Z"/><path class="c" d="M590.80335,7.78614h8.39941c4.95605,0,8.14844,2.54834,8.14844,6.88818v.05615c0,4.61963-3.55664,7.05566-8.42871,7.05566h-2.6875v5.6001h-5.43164V7.78614Zm8.00781,9.74414c1.93164,0,3.10742-1.00781,3.10742-2.54785v-.05615c0-1.68018-1.17578-2.57617-3.13574-2.57617h-2.54785v5.18018h2.57617Z"/><path class="c" d="M609.6471,7.78614h9.26758c2.99609,0,5.06836,.78418,6.38379,2.12842,1.14844,1.11963,1.73633,2.63184,1.73633,4.56396v.05566c0,2.99609-1.5957,4.98389-4.03223,6.02002l4.67578,6.83203h-6.27148l-3.94824-5.93604h-2.37988v5.93604h-5.43164V7.78614Zm9.01562,9.4082c1.84766,0,2.91211-.896,2.91211-2.32422v-.05566c0-1.54004-1.12012-2.32422-2.94043-2.32422h-3.55566v4.7041h3.58398Z"/><path class="c" d="M629.10706,17.64209v-.05566c0-5.62793,4.53516-10.19189,10.58301-10.19189,6.04883,0,10.52832,4.50781,10.52832,10.13574v.05615c0,5.62793-4.53613,10.19189-10.58398,10.19189s-10.52734-4.5083-10.52734-10.13623Zm15.56738,0v-.05566c0-2.82812-2.04395-5.29199-5.04004-5.29199-2.96777,0-4.95605,2.40771-4.95605,5.23584v.05615c0,2.82764,2.04395,5.29199,5.01172,5.29199,2.99609,0,4.98438-2.4082,4.98438-5.23633Z"/><path class="c" d="M650.58362,24.41846l3.5-3.3042c.95215,1.14795,1.84766,1.81982,3.05176,1.81982,1.37207,0,2.24023-.92383,2.24023-2.74365V7.78614h5.40332v12.43213c0,2.46387-.61523,4.2002-1.93164,5.51611-1.28809,1.28809-3.13574,1.98779-5.37598,1.98779-3.41602,0-5.51562-1.42773-6.8877-3.30371Z"/><path class="c" d="M667.99866,7.78614h15.76367v4.62012h-10.3877v2.96826h9.40723v4.28369h-9.40723v3.10791h10.52734v4.62012h-15.90332V7.78614Z"/><path class="c" d="M685.86292,17.64209v-.05566c0-5.71191,4.39551-10.19189,10.33105-10.19189,4.00488,0,6.58008,1.67969,8.31641,4.08789l-4.08789,3.16406c-1.12012-1.40039-2.4082-2.29639-4.28418-2.29639-2.74414,0-4.67578,2.32422-4.67578,5.18018v.05615c0,2.93994,1.93164,5.23584,4.67578,5.23584,2.04395,0,3.24805-.95215,4.42383-2.37988l4.08789,2.91162c-1.84766,2.54834-4.33984,4.42432-8.67969,4.42432-5.59961,0-10.10742-4.28418-10.10742-10.13623Z"/><path class="c" d="M711.76331,12.54639h-5.88086V7.78614h17.19238v4.76025h-5.87988v14.83984h-5.43164V12.54639Z"/></g></svg>