<?xml version="1.0" encoding="utf-8"?>
<!-- Generator: Adobe Illustrator 28.2.0, SVG Export Plug-In . SVG Version: 6.00 Build 0)  -->
<svg version="1.1" id="Layer_1" xmlns="http://www.w3.org/2000/svg" xmlns:xlink="http://www.w3.org/1999/xlink" x="0px" y="0px"
	 viewBox="0 0 1440 482.1" style="enable-background:new 0 0 1440 482.1;" xml:space="preserve">
<style type="text/css">
	.st0{fill:none;}
	.st1{fill:none;stroke:#F4F4F4;stroke-width:3;}
</style>
<rect x="-2" y="-34.5" class="st0" width="1440" height="475"/>
<g id="Group_114" transform="translate(-1.999 -34.465)">
	<path id="Path_42" class="st1" d="M733.2,377c35.7,35.7,93.6,35.7,129.3,0l0,0c35.7-35.7,35.7-93.6,0-129.3l0,0
		c-35.7-35.7-93.6-35.7-129.3,0l0,0C697.5,283.5,697.5,341.3,733.2,377L733.2,377z"/>
	<path id="Path_45" class="st1" d="M-102.1,493.8c28.3,28.3,74.2,28.3,102.5,0l0,0c24.1-24.1,63.1-24.1,87.2,0
		c28.3,28.3,74.2,28.3,102.5,0l0,0l0,0c28.3-28.3,28.3-74.2,0-102.5l0,0l0,0c-28.3-28.3-74.2-28.3-102.6,0
		c-24.1,24.1-63.1,24.1-87.2,0l0,0c-28.3-28.3-74.2-28.3-102.6,0l0,0C-130.4,419.5-130.4,465.5-102.1,493.8L-102.1,493.8
		L-102.1,493.8z"/>
	<path id="Path_46" class="st1" d="M1235.3,129.8c21,21,55,21,76,0l0,0c17.9-17.8,46.8-17.8,64.6,0c21,21,55,21,76,0l0,0l0,0
		c21-21,21-55,0-76l0,0l0,0c-21-21-55-21-76,0c-17.8,17.8-46.8,17.9-64.6,0l0,0c-21-21-55-21-76,0l0,0
		C1214.3,74.7,1214.3,108.8,1235.3,129.8L1235.3,129.8z"/>
	<path id="Path_48" class="st1" d="M1179.1,433.5c12.1,12.1,31.7,12.1,43.7,0l0,0c10.3-10.3,26.9-10.3,37.2,0
		c12.1,12.1,31.7,12.1,43.7,0l0,0c10.3-10.3,26.9-10.3,37.2,0c12.1,12.1,31.7,12.1,43.7,0l0,0c10.3-10.3,26.9-10.3,37.2,0
		c12.1,12.1,31.7,12.1,43.7,0l0,0l0,0c12.1-12.1,12.1-31.7,0-43.7l0,0c-12.1-12.1-31.7-12.1-43.7,0c-10.3,10.3-26.9,10.3-37.2,0l0,0
		c-12.1-12.1-31.7-12.1-43.7,0c-10.3,10.3-26.9,10.3-37.2,0l0,0c-12.1-12.1-31.7-12.1-43.7,0c-10.3,10.3-26.9,10.3-37.2,0l0,0
		c-12.1-12.1-31.7-12.1-43.7,0l0,0C1167,401.8,1167,421.4,1179.1,433.5L1179.1,433.5z"/>
	<path id="Path_50" class="st1" d="M45.6,71.5c27,27,70.8,27,97.8,0l0,0c23-23,60.2-23,83.1,0c27,27,70.8,27,97.8,0l0,0
		c23-23,60.2-23,83.1,0c27,27,70.8,27,97.8,0l0,0c23-23,60.2-23,83.1,0c27,27,70.8,27,97.8,0l0,0l0,0c27-27,27-70.8,0-97.8l0,0
		c-27-27-70.8-27-97.8,0c-23,23-60.2,23-83.1,0l0,0c-27-27-70.8-27-97.8,0c-23,23-60.2,23-83.1,0l0,0c-27-27-70.8-27-97.8,0
		c-23,23-60.2,23-83.1,0l0,0c-27-27-70.8-27-97.8,0l0,0C18.6,0.7,18.6,44.5,45.6,71.5L45.6,71.5z"/>
	<path id="Path_49" class="st1" d="M1034.6,310.9c12.1-12.1,12.1-31.7,0-43.7l0,0c-10.3-10.3-10.3-26.9,0-37.2
		c12.1-12.1,12.1-31.7,0-43.7l0,0c-10.3-10.3-10.3-26.9,0-37.2c12.1-12.1,12.1-31.7,0-43.7l0,0c-10.3-10.3-10.3-26.9,0-37.2
		c12.1-12.1,12.1-31.7,0-43.7l0,0l0,0c-12.1-12.1-31.7-12.1-43.7,0l0,0c-12.1,12.1-12.1,31.7,0,43.7c10.3,10.3,10.3,26.9,0,37.2l0,0
		c-12.1,12.1-12.1,31.7,0,43.7c10.3,10.3,10.3,26.9,0,37.2l0,0c-12.1,12.1-12.1,31.7,0,43.7c10.3,10.3,10.3,26.9,0,37.2l0,0
		c-12.1,12.1-12.1,31.7,0,43.7l0,0C1002.9,323,1022.5,323,1034.6,310.9L1034.6,310.9z"/>
</g>
</svg>
