<?xml version="1.0" encoding="UTF-8"?>
<!-- Generator: Adobe Illustrator 26.0.3, SVG Export Plug-In . SVG Version: 6.00 Build 0)  -->
<svg version="1.1" id="Layer_1" xmlns="http://www.w3.org/2000/svg" xmlns:xlink="http://www.w3.org/1999/xlink" x="0px" y="0px" viewBox="0 0 1440 401" style="enable-background:new 0 0 1440 401;" xml:space="preserve">
<style type="text/css">
	.st0{fill:url(#Rectangle_362_00000134946502895634167000000013387661634604928177_);}
	.st1{fill:none;stroke:#4308E5;stroke-width:3;}
</style>
<g id="sub_page_bg" transform="translate(0 -36.709)">
	
		<radialGradient id="Rectangle_362_00000062164038097039515730000012876234357862550198_" cx="186.3708" cy="622.5764" r="0.581" gradientTransform="matrix(1440 0 0 -401 -267654 249890.3281)" gradientUnits="userSpaceOnUse">
		<stop offset="0" style="stop-color:#4308E5"/>
		<stop offset="1" style="stop-color:#220473"/>
	</radialGradient>
	
		<rect id="Rectangle_362" y="36.7" style="fill:url(#Rectangle_362_00000062164038097039515730000012876234357862550198_);" width="1440" height="401"/>
	<path class="st1" d="M995,288.2c-35.7,35.7-35.7,93.6,0,129.3v0c9,9,19.5,15.8,30.6,20.2h68c11.2-4.5,21.6-11.2,30.6-20.2   c35.7-35.7,35.7-93.6,0-129.3C1088.6,252.5,1030.7,252.5,995,288.2z"/>
	<path id="Path_45" class="st1" d="M65.7,366.3c28.3,28.3,74.2,28.3,102.5,0c0,0,0,0,0,0c24.1-24.1,63.1-24.1,87.2,0   c28.3,28.3,74.2,28.3,102.5,0c0,0,0,0,0,0l0,0c28.3-28.3,28.3-74.2,0-102.5c0,0,0,0,0,0l0,0c-28.3-28.3-74.2-28.3-102.6,0   c-24.1,24.1-63.1,24.1-87.2,0c0,0,0,0,0,0c-28.3-28.3-74.2-28.3-102.6,0l0,0C37.4,292,37.4,337.9,65.7,366.3   C65.7,366.2,65.7,366.2,65.7,366.3L65.7,366.3z"/>
	<path class="st1" d="M307.4,112L307.4,112c27,27,70.8,27,97.8,0c0,0,0,0,0,0c23-23,60.2-23,83.1,0c27,27,70.8,27,97.8,0   c0,0,0,0,0,0c23-23,60.2-23,83.1,0c27,27,70.8,27,97.8,0c0,0,0,0,0,0c23-23,60.2-23,83.1,0c27,27,70.8,27,97.8,0c0,0,0,0,0,0   c20.3-20.3,25.3-50.2,15-75.2H292.4C282.1,61.7,287.1,91.6,307.4,112z"/>
	<path id="Path_49" class="st1" d="M1296.4,351.4c12.1-12.1,12.1-31.7,0-43.7c0,0,0,0,0,0c-10.3-10.3-10.3-26.9,0-37.2   c12.1-12.1,12.1-31.7,0-43.7c0,0,0,0,0,0c-10.3-10.3-10.3-26.9,0-37.2c12.1-12.1,12.1-31.7,0-43.7c0,0,0,0,0,0   c-10.3-10.3-10.3-26.9,0-37.2c12.1-12.1,12.1-31.7,0-43.7c0,0,0,0,0,0l0,0c-12.1-12.1-31.7-12.1-43.7,0l0,0   c-12.1,12.1-12.1,31.7,0,43.7c10.3,10.3,10.3,26.9,0,37.2c0,0,0,0,0,0c-12.1,12.1-12.1,31.7,0,43.7c10.3,10.3,10.3,26.9,0,37.2   c0,0,0,0,0,0c-12.1,12.1-12.1,31.7,0,43.7c10.3,10.3,10.3,26.9,0,37.2c0,0,0,0,0,0c-12.1,12.1-12.1,31.7,0,43.7l0,0   C1264.8,363.5,1284.4,363.5,1296.4,351.4L1296.4,351.4z"/>
</g>
</svg>