<svg id="Layer_1" data-name="Layer 1" xmlns="http://www.w3.org/2000/svg" xmlns:xlink="http://www.w3.org/1999/xlink" viewBox="6 0 1472 690"><defs><style>.cls-1{fill:url(#radial-gradient);}.cls-2{fill:none;stroke:#4308e5;stroke-width:3px;}</style><radialGradient id="radial-gradient" cx="58.59" cy="665.15" r="1.12" gradientTransform="matrix(1477.58, 0, 0, -690.39, -85838.29, 459558.18)" gradientUnits="userSpaceOnUse"><stop offset="0" stop-color="#4308e5"/><stop offset="1" stop-color="#220473"/></radialGradient></defs><path id="Path_37" data-name="Path 37" class="cls-1" d="M0,0H1477.58V690.39H0Z" transform="translate(1.5 1.5)"/><path class="cls-2" d="M287.22,476a72.52,72.52,0,0,0-102.56,0,61.65,61.65,0,0,1-87.19,0h0A72.53,72.53,0,0,0,0,471.39V583.21a72.5,72.5,0,0,0,97.44-4.61l0,0a61.68,61.68,0,0,1,87.2,0,72.51,72.51,0,0,0,102.54,0l0,0a72.51,72.51,0,0,0,0-102.54Z" transform="translate(1.5 1.5)"/><path class="cls-2" d="M210.88,59.56l0,0a72.51,72.51,0,0,0,102.54,0l0,0a61.68,61.68,0,0,1,87.2,0,72.51,72.51,0,0,0,102.54,0l0,0A72.36,72.36,0,0,0,524,0H190.15A72.31,72.31,0,0,0,210.88,59.56Z" transform="translate(1.5 1.5)"/><path class="cls-2" d="M1477.58,130.3a53.79,53.79,0,0,0-61.26,10.47,45.7,45.7,0,0,1-64.63,0h0a53.76,53.76,0,0,0-76,76h0a53.75,53.75,0,0,0,76,0v0a45.73,45.73,0,0,1,64.64,0,53.76,53.76,0,0,0,61.26,10.47Z" transform="translate(1.5 1.5)"/><path class="cls-2" d="M1477.58,452.06a30.92,30.92,0,0,0-41.79,1.78,26.31,26.31,0,0,1-37.2,0h0a30.93,30.93,0,0,0-43.74,0,26.31,26.31,0,0,1-37.19,0h0a30.93,30.93,0,0,0-43.74,0,26.3,26.3,0,0,1-37.19,0h0a30.93,30.93,0,1,0,0,43.75h0a26.31,26.31,0,0,1,37.2,0,30.93,30.93,0,0,0,43.74,0h0a26.33,26.33,0,0,1,37.2,0,30.91,30.91,0,0,0,43.73,0h0a26.31,26.31,0,0,1,37.2,0,30.91,30.91,0,0,0,41.79,1.79Z" transform="translate(1.5 1.5)"/><path class="cls-2" d="M945.17,0H890a31.1,31.1,0,0,0,5.7,7.85,26.3,26.3,0,0,1,0,37.19,30.93,30.93,0,0,0,0,43.74,26.31,26.31,0,0,1,0,37.2,30.93,30.93,0,0,0,43.74,43.75h0a30.93,30.93,0,0,0,0-43.74h0a26.31,26.31,0,0,1,0-37.2,30.91,30.91,0,0,0,0-43.73h0a26.3,26.3,0,0,1,0-37.19A30.86,30.86,0,0,0,945.17,0Z" transform="translate(1.5 1.5)"/></svg>