<?xml version="1.0" encoding="utf-8"?>
<!-- Generator: Adobe Illustrator 27.8.1, SVG Export Plug-In . SVG Version: 6.00 Build 0)  -->
<svg version="1.1" id="Layer_1" xmlns="http://www.w3.org/2000/svg" xmlns:xlink="http://www.w3.org/1999/xlink" x="0px" y="0px"
	 viewBox="0 0 600 140" style="enable-background:new 0 0 600 140;" xml:space="preserve">
<style type="text/css">
	.st0{fill:#2922E2;}
	.st1{fill:#050505;}
</style>
<g>
	<g>
		<path class="st0" d="M40.6,77.7c-6,0-10.6-1.7-14-5c-3.4-3.3-5-8.1-5-14.2V35h9.7v23.2c0,4,0.8,6.9,2.5,8.6
			c1.6,1.8,3.9,2.6,6.9,2.6c3,0,5.3-0.9,6.9-2.6c1.6-1.8,2.5-4.6,2.5-8.6V35h9.6v23.5c0,6.2-1.7,10.9-5,14.2
			C51.2,76,46.6,77.7,40.6,77.7z"/>
		<path class="st0" d="M63.2,77l18.1-24.9v7.1L64,35h11L87,51.8l-4.6,0.1L94.1,35h10.6L87.5,58.7v-7L105.7,77H94.5L82.1,59.1h4.4
			L74.4,77H63.2z"/>
		<path class="st0" d="M109,77V35h9.7V69h21.1V77H109z"/>
		<path class="st1" d="M170.7,77H161V35h31.7v7.8h-22V77z M170,53.9h20.2v7.8H170V53.9z"/>
		<path class="st1" d="M218.7,77.7c-3.3,0-6.4-0.5-9.2-1.6c-2.8-1.1-5.3-2.6-7.3-4.6c-2.1-2-3.7-4.3-4.8-6.9
			c-1.1-2.6-1.7-5.5-1.7-8.6s0.6-6,1.7-8.6c1.1-2.6,2.8-4.9,4.8-6.9c2.1-2,4.5-3.5,7.3-4.6c2.8-1.1,5.8-1.6,9.1-1.6
			c3.3,0,6.4,0.5,9.2,1.6c2.8,1.1,5.2,2.6,7.3,4.6c2.1,2,3.7,4.3,4.8,6.9c1.2,2.6,1.7,5.5,1.7,8.7c0,3.1-0.6,6-1.7,8.7
			c-1.2,2.7-2.8,5-4.8,6.9c-2.1,1.9-4.5,3.5-7.3,4.5C225,77.1,222,77.7,218.7,77.7z M218.6,69.4c1.9,0,3.6-0.3,5.2-1
			c1.6-0.6,3-1.6,4.2-2.8c1.2-1.2,2.1-2.6,2.8-4.3c0.7-1.6,1-3.5,1-5.5c0-2-0.3-3.8-1-5.5c-0.7-1.6-1.6-3.1-2.8-4.3
			c-1.2-1.2-2.6-2.1-4.2-2.8c-1.6-0.6-3.3-1-5.2-1c-1.9,0-3.6,0.3-5.2,1c-1.6,0.6-3,1.6-4.2,2.8c-1.2,1.2-2.1,2.6-2.8,4.3
			c-0.7,1.6-1,3.5-1,5.5c0,2,0.3,3.8,1,5.4c0.7,1.7,1.6,3.1,2.8,4.3c1.2,1.2,2.6,2.1,4.2,2.8C215,69.1,216.8,69.4,218.6,69.4z"/>
		<path class="st1" d="M267,77.7c-6,0-10.6-1.7-14-5c-3.4-3.3-5-8.1-5-14.2V35h9.7v23.2c0,4,0.8,6.9,2.5,8.6
			c1.6,1.8,3.9,2.6,6.9,2.6c3,0,5.3-0.9,6.9-2.6c1.6-1.8,2.5-4.6,2.5-8.6V35h9.6v23.5c0,6.2-1.7,10.9-5,14.2
			C277.6,76,273,77.7,267,77.7z"/>
		<path class="st1" d="M295,77V35h8l24.8,30.2h-3.9V35h9.6v42h-8l-24.8-30.2h3.9V77H295z"/>
		<path class="st1" d="M342.9,77V35H362c4.6,0,8.6,0.9,12.1,2.6c3.5,1.7,6.2,4.2,8.2,7.3c2,3.1,2.9,6.8,2.9,11.1
			c0,4.2-1,7.9-2.9,11.1c-2,3.1-4.7,5.6-8.2,7.3c-3.5,1.7-7.5,2.6-12.1,2.6H342.9z M352.6,69h8.9c2.8,0,5.2-0.5,7.3-1.6
			c2.1-1.1,3.7-2.6,4.8-4.5c1.1-2,1.7-4.3,1.7-6.9c0-2.7-0.6-5-1.7-6.9c-1.1-1.9-2.7-3.4-4.8-4.5c-2.1-1.1-4.5-1.6-7.3-1.6h-8.9V69z
			"/>
		<path class="st1" d="M385.7,77l18.7-42h9.6l18.8,42h-10.2l-15.4-37.1h3.8L395.7,77H385.7z M395.1,68l2.6-7.4h21.6l2.6,7.4H395.1z"
			/>
		<path class="st1" d="M443.2,77V42.9h-13.4V35h36.6v7.9h-13.4V77H443.2z"/>
		<path class="st1" d="M471,77V35h9.7v42H471z"/>
		<path class="st1" d="M510.5,77.7c-3.3,0-6.4-0.5-9.2-1.6s-5.3-2.6-7.3-4.6c-2.1-2-3.7-4.3-4.8-6.9c-1.1-2.6-1.7-5.5-1.7-8.6
			s0.6-6,1.7-8.6c1.1-2.6,2.8-4.9,4.8-6.9c2.1-2,4.5-3.5,7.3-4.6c2.8-1.1,5.8-1.6,9.1-1.6c3.3,0,6.4,0.5,9.1,1.6s5.2,2.6,7.3,4.6
			c2.1,2,3.7,4.3,4.8,6.9c1.2,2.6,1.7,5.5,1.7,8.7c0,3.1-0.6,6-1.7,8.7c-1.2,2.7-2.8,5-4.8,6.9c-2.1,1.9-4.5,3.5-7.3,4.5
			S513.8,77.7,510.5,77.7z M510.4,69.4c1.9,0,3.6-0.3,5.2-1c1.6-0.6,3-1.6,4.2-2.8c1.2-1.2,2.1-2.6,2.8-4.3c0.7-1.6,1-3.5,1-5.5
			c0-2-0.3-3.8-1-5.5c-0.7-1.6-1.6-3.1-2.8-4.3c-1.2-1.2-2.6-2.1-4.2-2.8c-1.6-0.6-3.3-1-5.2-1c-1.9,0-3.6,0.3-5.2,1
			c-1.6,0.6-3,1.6-4.2,2.8c-1.2,1.2-2.1,2.6-2.8,4.3c-0.7,1.6-1,3.5-1,5.5c0,2,0.3,3.8,1,5.4c0.7,1.7,1.6,3.1,2.8,4.3
			c1.2,1.2,2.6,2.1,4.2,2.8C506.8,69.1,508.5,69.4,510.4,69.4z"/>
		<path class="st1" d="M540.1,77V35h8l24.8,30.2H569V35h9.6v42h-8l-24.8-30.2h3.9V77H540.1z"/>
	</g>
	<g>
		<path class="st0" d="M157.5,106.6c-3,0-5.3-0.8-7-2.5c-1.7-1.7-2.5-4-2.5-7.1V85.3h4.9v11.6c0,2,0.4,3.4,1.2,4.3
			c0.8,0.9,2,1.3,3.5,1.3s2.6-0.4,3.5-1.3c0.8-0.9,1.2-2.3,1.2-4.3V85.3h4.8V97c0,3.1-0.8,5.5-2.5,7.1
			C162.8,105.8,160.5,106.6,157.5,106.6z"/>
		<path class="st0" d="M180.7,89.9c1.3,0,2.4,0.3,3.4,0.8c1,0.5,1.8,1.3,2.4,2.3c0.6,1,0.9,2.4,0.9,4v9.2h-4.7v-8.5
			c0-1.3-0.3-2.3-0.9-2.9c-0.6-0.6-1.4-0.9-2.4-0.9c-0.7,0-1.4,0.2-2,0.5c-0.6,0.3-1,0.8-1.4,1.4s-0.5,1.5-0.5,2.5v8h-4.7V90.1h4.5
			v4.5l-0.8-1.4c0.6-1.1,1.4-1.9,2.5-2.5C178.1,90.2,179.3,89.9,180.7,89.9z"/>
		<path class="st0" d="M193.4,87.9c-0.9,0-1.6-0.2-2.1-0.8c-0.5-0.5-0.8-1.1-0.8-1.9c0-0.7,0.3-1.4,0.8-1.9s1.2-0.8,2.1-0.8
			s1.6,0.2,2.1,0.7s0.8,1.1,0.8,1.8c0,0.8-0.3,1.4-0.8,1.9C195,87.6,194.3,87.9,193.4,87.9z M191,106.3V90.1h4.7v16.1H191z"/>
		<path class="st0" d="M197.6,94.1v-3.6h11.2v3.6H197.6z M200,106.3V89.8c0-1.8,0.5-3.3,1.6-4.4c1.1-1.1,2.6-1.6,4.6-1.6
			c0.7,0,1.3,0.1,2,0.2c0.6,0.1,1.2,0.4,1.6,0.7l-1.2,3.4c-0.3-0.2-0.5-0.3-0.9-0.4c-0.3-0.1-0.7-0.1-1-0.1c-0.7,0-1.2,0.2-1.6,0.6
			s-0.6,1-0.6,1.8v1.5l0.1,2v13H200z M213.7,87.9c-0.9,0-1.6-0.2-2.1-0.8c-0.5-0.5-0.8-1.1-0.8-1.9c0-0.7,0.3-1.4,0.8-1.9
			s1.2-0.8,2.1-0.8c0.9,0,1.6,0.2,2.1,0.7s0.8,1.1,0.8,1.8c0,0.8-0.3,1.4-0.8,1.9C215.3,87.6,214.6,87.9,213.7,87.9z M211.4,106.3
			V90.1h4.7v16.1H211.4z"/>
		<path class="st0" d="M227.8,106.5c-1.8,0-3.5-0.4-4.8-1.1c-1.4-0.7-2.5-1.7-3.2-3s-1.1-2.7-1.1-4.3c0-1.6,0.4-3.1,1.1-4.3
			c0.8-1.2,1.8-2.2,3.1-2.9c1.3-0.7,2.8-1.1,4.4-1.1c1.6,0,3,0.3,4.3,1c1.3,0.7,2.3,1.6,3,2.9c0.7,1.3,1.1,2.7,1.1,4.5
			c0,0.2,0,0.4,0,0.6c0,0.2,0,0.4-0.1,0.6h-13.1v-2.7H233l-1.8,0.8c0-0.8-0.2-1.6-0.5-2.2c-0.3-0.6-0.8-1.1-1.4-1.5
			c-0.6-0.3-1.3-0.5-2.1-0.5s-1.5,0.2-2.1,0.5c-0.6,0.4-1.1,0.8-1.4,1.5c-0.3,0.6-0.5,1.4-0.5,2.2v0.7c0,0.9,0.2,1.7,0.6,2.3
			c0.4,0.7,0.9,1.2,1.7,1.5c0.7,0.4,1.5,0.5,2.5,0.5c0.9,0,1.6-0.1,2.3-0.4c0.6-0.3,1.2-0.6,1.8-1.2l2.5,2.7
			c-0.7,0.8-1.7,1.5-2.8,1.9C230.5,106.3,229.2,106.5,227.8,106.5z"/>
		<path class="st0" d="M245,106.5c-1.5,0-2.9-0.3-4.1-1s-2.2-1.7-2.9-2.9c-0.7-1.2-1.1-2.7-1.1-4.4c0-1.7,0.4-3.2,1.1-4.4
			c0.7-1.2,1.7-2.2,2.9-2.9c1.2-0.7,2.6-1,4.1-1c1.4,0,2.5,0.3,3.6,0.9c1,0.6,1.8,1.5,2.4,2.7c0.6,1.2,0.8,2.8,0.8,4.7
			c0,1.9-0.3,3.4-0.8,4.7s-1.3,2.1-2.3,2.7C247.7,106.2,246.5,106.5,245,106.5z M245.8,102.7c0.8,0,1.5-0.2,2.1-0.5
			c0.6-0.4,1.1-0.9,1.5-1.5c0.4-0.7,0.6-1.5,0.6-2.4c0-0.9-0.2-1.7-0.6-2.4c-0.4-0.7-0.9-1.2-1.5-1.5s-1.3-0.5-2.1-0.5
			c-0.8,0-1.5,0.2-2.1,0.5s-1.1,0.9-1.5,1.5c-0.4,0.7-0.6,1.5-0.6,2.4c0,0.9,0.2,1.7,0.6,2.4c0.4,0.7,0.9,1.2,1.5,1.5
			C244.4,102.5,245.1,102.7,245.8,102.7z M250.1,106.3V103l0.1-4.8l-0.3-4.8V84h4.7v22.3H250.1z"/>
		<path class="st0" d="M263.7,106.3l9.4-21h4.8l9.4,21h-5.1l-7.7-18.5h1.9l-7.7,18.5H263.7z M268.4,101.8l1.3-3.7h10.8l1.3,3.7
			H268.4z"/>
		<path class="st0" d="M296.2,106.5c-1.7,0-3.3-0.4-4.7-1.1c-1.4-0.7-2.4-1.7-3.2-3c-0.8-1.3-1.2-2.7-1.2-4.3c0-1.6,0.4-3.1,1.2-4.3
			c0.8-1.2,1.8-2.2,3.2-2.9s2.9-1.1,4.7-1.1c1.7,0,3.2,0.4,4.4,1.1c1.3,0.7,2.2,1.7,2.8,3l-3.6,2c-0.4-0.8-0.9-1.3-1.6-1.7
			c-0.6-0.4-1.3-0.5-2.1-0.5c-0.8,0-1.5,0.2-2.2,0.5s-1.1,0.9-1.5,1.5c-0.4,0.7-0.6,1.5-0.6,2.4s0.2,1.7,0.6,2.4s0.9,1.2,1.5,1.5
			c0.6,0.4,1.4,0.5,2.2,0.5c0.7,0,1.4-0.2,2.1-0.5c0.6-0.3,1.2-0.9,1.6-1.7l3.6,2c-0.6,1.3-1.5,2.3-2.8,3
			C299.4,106.2,297.9,106.5,296.2,106.5z"/>
		<path class="st0" d="M313.1,106.5c-1.7,0-3.3-0.4-4.7-1.1c-1.4-0.7-2.4-1.7-3.2-3c-0.8-1.3-1.2-2.7-1.2-4.3c0-1.6,0.4-3.1,1.2-4.3
			c0.8-1.2,1.8-2.2,3.2-2.9s2.9-1.1,4.7-1.1c1.7,0,3.2,0.4,4.4,1.1c1.3,0.7,2.2,1.7,2.8,3l-3.6,2c-0.4-0.8-0.9-1.3-1.6-1.7
			c-0.6-0.4-1.3-0.5-2.1-0.5c-0.8,0-1.5,0.2-2.2,0.5s-1.1,0.9-1.5,1.5c-0.4,0.7-0.6,1.5-0.6,2.4s0.2,1.7,0.6,2.4s0.9,1.2,1.5,1.5
			c0.6,0.4,1.4,0.5,2.2,0.5c0.7,0,1.4-0.2,2.1-0.5c0.6-0.3,1.2-0.9,1.6-1.7l3.6,2c-0.6,1.3-1.5,2.3-2.8,3
			C316.3,106.2,314.8,106.5,313.1,106.5z"/>
		<path class="st0" d="M330.2,106.5c-1.8,0-3.5-0.4-4.8-1.1c-1.4-0.7-2.5-1.7-3.2-3s-1.1-2.7-1.1-4.3c0-1.6,0.4-3.1,1.1-4.3
			c0.8-1.2,1.8-2.2,3.1-2.9c1.3-0.7,2.8-1.1,4.4-1.1c1.6,0,3,0.3,4.3,1c1.3,0.7,2.3,1.6,3,2.9c0.7,1.3,1.1,2.7,1.1,4.5
			c0,0.2,0,0.4,0,0.6c0,0.2,0,0.4-0.1,0.6h-13.1v-2.7h10.7l-1.8,0.8c0-0.8-0.2-1.6-0.5-2.2c-0.3-0.6-0.8-1.1-1.4-1.5
			c-0.6-0.3-1.3-0.5-2.1-0.5s-1.5,0.2-2.1,0.5c-0.6,0.4-1.1,0.8-1.4,1.5c-0.3,0.6-0.5,1.4-0.5,2.2v0.7c0,0.9,0.2,1.7,0.6,2.3
			c0.4,0.7,0.9,1.2,1.7,1.5c0.7,0.4,1.5,0.5,2.5,0.5c0.9,0,1.6-0.1,2.3-0.4c0.6-0.3,1.2-0.6,1.8-1.2l2.5,2.7
			c-0.7,0.8-1.7,1.5-2.8,1.9C333,106.3,331.7,106.5,330.2,106.5z"/>
		<path class="st0" d="M340.6,106.3V84h4.7v22.3H340.6z"/>
		<path class="st0" d="M357,106.5c-1.8,0-3.5-0.4-4.8-1.1c-1.4-0.7-2.5-1.7-3.2-3s-1.1-2.7-1.1-4.3c0-1.6,0.4-3.1,1.1-4.3
			c0.8-1.2,1.8-2.2,3.1-2.9c1.3-0.7,2.8-1.1,4.4-1.1c1.6,0,3,0.3,4.3,1c1.3,0.7,2.3,1.6,3,2.9c0.7,1.3,1.1,2.7,1.1,4.5
			c0,0.2,0,0.4,0,0.6c0,0.2,0,0.4-0.1,0.6h-13.1v-2.7h10.7l-1.8,0.8c0-0.8-0.2-1.6-0.5-2.2c-0.3-0.6-0.8-1.1-1.4-1.5
			c-0.6-0.3-1.3-0.5-2.1-0.5s-1.5,0.2-2.1,0.5c-0.6,0.4-1.1,0.8-1.4,1.5c-0.3,0.6-0.5,1.4-0.5,2.2v0.7c0,0.9,0.2,1.7,0.6,2.3
			c0.4,0.7,0.9,1.2,1.7,1.5c0.7,0.4,1.5,0.5,2.5,0.5c0.9,0,1.6-0.1,2.3-0.4c0.7-0.3,1.2-0.6,1.8-1.2l2.5,2.7
			c-0.7,0.8-1.7,1.5-2.8,1.9C359.7,106.3,358.5,106.5,357,106.5z"/>
		<path class="st0" d="M367.3,106.3V90.1h4.5v4.6l-0.6-1.3c0.5-1.1,1.2-2,2.3-2.6c1.1-0.6,2.4-0.9,3.9-0.9v4.3c-0.2,0-0.4,0-0.5,0
			c-0.2,0-0.3,0-0.5,0c-1.3,0-2.3,0.4-3.1,1.1c-0.8,0.7-1.2,1.9-1.2,3.4v7.6H367.3z"/>
		<path class="st0" d="M383.5,106.5c-1.3,0-2.3-0.2-3.2-0.6c-0.9-0.4-1.6-1-2.1-1.8c-0.5-0.7-0.7-1.6-0.7-2.5c0-1,0.2-1.8,0.7-2.5
			c0.5-0.7,1.2-1.3,2.2-1.7c1-0.4,2.3-0.6,4-0.6h4.3v2.7h-3.8c-1.1,0-1.9,0.2-2.3,0.5c-0.4,0.4-0.6,0.8-0.6,1.4
			c0,0.6,0.2,1.1,0.7,1.4c0.5,0.4,1.1,0.5,1.9,0.5c0.8,0,1.5-0.2,2.1-0.6c0.6-0.4,1.1-0.9,1.3-1.6l0.7,2.2c-0.3,1-1,1.8-1.9,2.4
			C386,106.2,384.9,106.5,383.5,106.5z M388.4,106.3v-3.1l-0.3-0.7v-5.6c0-1-0.3-1.8-0.9-2.3s-1.5-0.8-2.8-0.8
			c-0.9,0-1.7,0.1-2.5,0.4s-1.5,0.6-2.1,1.1l-1.7-3.3c0.9-0.6,1.9-1.1,3.2-1.4c1.2-0.3,2.5-0.5,3.8-0.5c2.5,0,4.4,0.6,5.7,1.7
			c1.4,1.2,2,3,2,5.4v9.2H388.4z"/>
		<path class="st0" d="M394.5,94.1v-3.6h11.2v3.6H394.5z M403,106.5c-1.9,0-3.4-0.5-4.4-1.5c-1.1-1-1.6-2.4-1.6-4.3V86.6h4.7v14.1
			c0,0.7,0.2,1.2,0.5,1.6c0.4,0.4,0.8,0.6,1.5,0.6c0.7,0,1.4-0.2,1.9-0.6l1.3,3.3c-0.5,0.3-1.1,0.6-1.7,0.8
			C404.4,106.4,403.7,106.5,403,106.5z"/>
		<path class="st0" d="M411.2,87.9c-0.9,0-1.6-0.2-2.1-0.8c-0.5-0.5-0.8-1.1-0.8-1.9c0-0.7,0.3-1.4,0.8-1.9s1.2-0.8,2.1-0.8
			c0.9,0,1.6,0.2,2.1,0.7s0.8,1.1,0.8,1.8c0,0.8-0.3,1.4-0.8,1.9C412.8,87.6,412.1,87.9,411.2,87.9z M408.8,106.3V90.1h4.7v16.1
			H408.8z"/>
		<path class="st0" d="M424.9,106.5c-1.7,0-3.2-0.4-4.6-1.1c-1.3-0.7-2.4-1.7-3.1-3c-0.8-1.2-1.2-2.7-1.2-4.3c0-1.6,0.4-3.1,1.2-4.3
			c0.8-1.2,1.8-2.2,3.1-2.9s2.9-1.1,4.6-1.1c1.7,0,3.2,0.4,4.6,1.1c1.3,0.7,2.4,1.7,3.1,2.9c0.8,1.2,1.1,2.7,1.1,4.3
			c0,1.6-0.4,3-1.1,4.3s-1.8,2.2-3.1,3C428.2,106.2,426.6,106.5,424.9,106.5z M424.9,102.7c0.8,0,1.5-0.2,2.1-0.5
			c0.6-0.4,1.1-0.9,1.5-1.5c0.4-0.7,0.5-1.5,0.5-2.4c0-0.9-0.2-1.7-0.5-2.4c-0.4-0.7-0.9-1.2-1.5-1.5c-0.6-0.4-1.3-0.5-2.1-0.5
			s-1.5,0.2-2.1,0.5c-0.6,0.4-1.1,0.9-1.5,1.5c-0.4,0.7-0.6,1.5-0.6,2.4c0,0.9,0.2,1.7,0.6,2.4c0.4,0.7,0.9,1.2,1.5,1.5
			C423.5,102.5,424.2,102.7,424.9,102.7z"/>
		<path class="st0" d="M446.1,89.9c1.3,0,2.4,0.3,3.4,0.8c1,0.5,1.8,1.3,2.4,2.3c0.6,1,0.9,2.4,0.9,4v9.2h-4.7v-8.5
			c0-1.3-0.3-2.3-0.9-2.9c-0.6-0.6-1.4-0.9-2.4-0.9c-0.7,0-1.4,0.2-2,0.5c-0.6,0.3-1,0.8-1.4,1.4s-0.5,1.5-0.5,2.5v8h-4.7V90.1h4.5
			v4.5l-0.8-1.4c0.6-1.1,1.4-1.9,2.5-2.5S444.7,89.9,446.1,89.9z"/>
	</g>
</g>
</svg>
